<!DOCTYPE svg PUBLIC "-//W3C//DTD SVG 20010904//EN" "http://www.w3.org/TR/2001/REC-SVG-20010904/DTD/svg10.dtd">
<svg version="1.0" xmlns="http://www.w3.org/2000/svg" width="55px" height="59px" viewBox="0 0 55 59" preserveAspectRatio="xMidYMid meet">
 <g id="layer101" fill="#290900" stroke="none">
  <path d="M46.2 56.1 c-1.7 -1.6 -3.2 -3.3 -3.2 -3.9 0 -0.6 -0.5 -1.2 -1.1 -1.4 -1.2 -0.4 -1.8 -12.8 -0.7 -12.8 0.4 0 2.1 2.7 3.8 6.1 2.1 4 4.2 6.7 6.5 8.1 3.8 2.1 4 2.5 2.6 4.7 -1.6 2.5 -4.5 2.1 -7.9 -0.8z"/>
  <path d="M1.2 52.2 c-1.4 -1 -0.6 -4.2 1.2 -4.2 0.8 0 0.8 -0.2 -0.1 -0.8 -1.2 -0.7 -1.6 -2.5 -1.4 -5.5 0 -1 0.5 -1.6 1 -1.2 0.5 0.3 1.2 0.1 1.5 -0.4 0.3 -0.5 4 -0.8 8.1 -0.8 4.1 0.1 7.6 -0.1 7.8 -0.4 0.1 -0.4 2.5 -1 5.3 -1.4 4.4 -0.6 5.2 -0.4 5.8 1.2 1 2.5 -6.9 9.2 -14.2 12.1 -5.8 2.2 -12.6 2.8 -15 1.4z"/>
  <path d="M34.3 27.9 c-1.8 -0.5 -3.3 -1.6 -3.3 -2.4 0 -0.8 -0.3 -1.4 -0.7 -1.3 -1.7 0.3 -8.8 -1.6 -10 -2.7 -3.6 -3.6 -1.5 -9.9 2.9 -8.8 1.3 0.3 2 0.3 1.6 -0.2 -1.3 -1.3 4.3 -10.6 7.1 -11.6 2.9 -1.2 6.8 0.2 7.8 2.6 0.3 0.9 2.2 2.4 4.2 3.5 5.5 2.8 6.6 4.5 6.3 10.4 -0.2 4.1 -0.8 5.6 -3 7.9 -3.2 3.1 -8 4.1 -12.9 2.6z"/>
</g>
 <g id="layer102" fill="#542f09" stroke="none">
  <path d="M46.2 56.1 c-1.7 -1.6 -3.2 -3.4 -3.2 -4 0 -0.6 -0.4 -1.1 -0.9 -1.1 -1.3 0 -1.8 -4.2 -1.1 -9.1 l0.6 -4.4 3.2 6.3 c2.2 4.3 4.4 7 6.7 8.4 3.8 2.1 4 2.5 2.6 4.7 -1.6 2.5 -4.5 2.1 -7.9 -0.8z"/>
  <path d="M1.2 52.2 c-1.4 -1 -0.6 -4.2 1.2 -4.2 0.8 0 0.8 -0.2 -0.1 -0.8 -1.2 -0.7 -1.6 -2.5 -1.4 -5.5 0 -1 0.5 -1.6 1 -1.2 0.5 0.3 1.2 0.1 1.5 -0.4 0.3 -0.5 4 -0.8 8.1 -0.8 4.1 0.1 7.6 -0.1 7.8 -0.4 0.1 -0.3 2 -0.9 4.1 -1.2 l3.9 -0.6 -3.4 2.9 c-1.9 1.6 -3.1 2.9 -2.8 3 0.5 0 2.5 -1.5 6.8 -5.1 1 -0.9 1.5 -0.9 2.2 0.2 1.4 2.2 1.2 2.5 -3.8 6.6 -8 6.6 -20.6 10.3 -25.1 7.5z"/>
  <path d="M34.3 27.9 c-1.7 -0.5 -3.3 -1.6 -3.5 -2.5 -0.2 -1.1 -1.7 -1.8 -4.6 -2 -4.9 -0.5 -6.9 -2 -7.6 -5.8 -0.6 -3.3 1.6 -5.6 4.6 -4.9 1.3 0.3 2 0.3 1.6 -0.2 -1.3 -1.3 4.3 -10.6 7.1 -11.6 2.9 -1.2 6.8 0.2 7.8 2.6 0.3 0.9 2.2 2.4 4.2 3.5 5.5 2.8 6.6 4.5 6.3 10.4 -0.2 4.1 -0.8 5.6 -3 7.9 -3.1 3.1 -8 4.1 -12.9 2.6z m12.6 -9.9 c0.8 0 -0.1 -1.1 -2 -2.3 -3.5 -2.5 -5.8 -2.6 -2.5 -0.1 2.3 1.7 1.1 3.5 -3.6 5.5 -2.7 1.1 -2.8 1.4 -1.2 1.9 1.3 0.5 2.8 -0.2 4.9 -2.2 1.6 -1.5 3.6 -2.8 4.4 -2.8z"/>
</g>
 <g id="layer103" fill="#6f4d1e" stroke="none">
  <path d="M46.3 56.1 c-1.8 -1.6 -3.3 -3.4 -3.3 -4 0 -0.6 -0.4 -1.1 -0.9 -1.1 -1.3 0 -1.8 -4.2 -1.1 -9.1 l0.6 -4.4 3.2 6.3 c2.2 4.3 4.4 7 6.7 8.4 3.9 2.2 3.9 2.2 2.4 4.9 -0.9 1.7 -1.3 1.8 -2.7 0.7 -1.2 -1 -1.4 -1 -0.8 0 1.3 2.1 -0.8 1.3 -4.1 -1.7z m4.1 -3.5 c-2.1 -1.5 -3 -1.4 -1.9 0.3 0.3 0.6 1.4 1.1 2.3 1.1 1.3 0 1.3 -0.2 -0.4 -1.4z"/>
  <path d="M1.2 52.2 c-1.4 -1 -0.6 -4.2 1.2 -4.2 0.8 0 0.8 -0.2 -0.1 -0.8 -1.2 -0.7 -1.6 -2.5 -1.4 -5.5 0 -1 0.5 -1.6 1 -1.2 0.5 0.3 1.2 0.1 1.5 -0.4 0.3 -0.5 4 -0.8 8.1 -0.8 4.1 0.1 7.6 -0.1 7.8 -0.4 0.1 -0.3 2 -0.9 4.1 -1.2 4.1 -0.6 4 -0.5 -0.8 3.1 -1.6 1.2 -2.2 2.2 -1.5 2.2 0.8 0 3 -1.4 4.8 -3.1 2.6 -2.3 3.6 -2.7 4.2 -1.7 1.4 2.1 1.2 2.4 -4.1 6.8 -3.8 3.2 -5.5 4 -7.2 3.5 -1.6 -0.4 -1.9 -0.3 -1 0.3 1.9 1.3 -1.1 2.4 -4.6 1.7 -2.1 -0.4 -2.2 -0.3 -0.8 0.3 1.8 0.8 1.8 0.9 0.2 1.5 -2.4 1 -9.8 0.8 -11.4 -0.1z m10.4 -6.3 c0.3 -0.6 1.4 -0.9 2.3 -0.6 1 0.2 2.6 -0.2 3.7 -1 1.7 -1.4 1.6 -1.4 -1.6 -0.8 -1.9 0.4 -4 1.2 -4.7 1.7 -0.7 0.5 -3.2 0.7 -5.5 0.4 -3.1 -0.4 -3.6 -0.3 -1.8 0.3 3.6 1.3 6.8 1.3 7.6 0z"/>
  <path d="M34.3 27.9 c-1.8 -0.5 -3.3 -1.6 -3.3 -2.3 0 -0.7 -0.8 -2 -1.7 -2.7 -1.6 -1.2 -1.7 -1.2 -0.5 0.2 1.1 1.5 0.8 1.5 -3 0.5 -5.1 -1.3 -6.6 -2.5 -7.2 -6 -0.6 -3.3 1.6 -5.6 4.6 -4.9 1.3 0.3 2 0.3 1.6 -0.2 -1.3 -1.3 4.3 -10.6 7.1 -11.6 2.9 -1.2 6.8 0.2 7.8 2.6 0.3 0.9 2.2 2.4 4.2 3.5 5.5 2.8 6.6 4.5 6.3 10.4 -0.2 4.1 -0.8 5.6 -3 7.9 -3.2 3.1 -8 4.1 -12.9 2.6z m6 -1.6 c-1.5 -0.5 -0.4 -4.3 1.3 -4.3 0.7 0 1.8 -0.9 2.4 -2 0.6 -1.1 1.8 -2 2.8 -2 1.2 0 1 -0.4 -0.8 -1.7 -3.7 -2.5 -5 -4 -5 -5.5 0 -0.8 0.6 -2 1.3 -2.7 1 -1 0.9 -1.1 -0.5 -0.6 -1 0.4 -1.8 1.3 -1.8 1.9 0 0.7 -1.2 1.9 -2.7 2.6 -1.7 0.7 -2.3 1.4 -1.5 1.7 0.7 0.3 1.8 0 2.5 -0.5 0.9 -0.8 1.8 -0.4 3.3 1.3 l2.1 2.4 -2.1 1.9 c-3 2.7 -6 3.7 -5.2 1.7 0.4 -1.1 0.2 -1.4 -0.6 -0.9 -0.6 0.4 -1.7 -0.1 -2.5 -1.1 -0.7 -1.1 -1.3 -1.5 -1.3 -1 0 1.4 4.2 5.5 5.7 5.5 0.8 0 1.3 0.6 1.2 1.3 -0.3 2.7 0.1 3.8 1.3 3.1 0.8 -0.5 0.9 -0.9 0.1 -1.1z m-5.4 -10.6 c-0.2 -0.2 -2.3 -1.8 -4.6 -3.6 -2.4 -1.8 -4.3 -2.8 -4.3 -2.2 0 1.1 6.7 5.9 8.4 6 0.5 0.1 0.7 0 0.5 -0.2z"/>
</g>
 <g id="layer104" fill="#725e4e" stroke="none">
  <path d="M46.3 56.1 c-1.8 -1.6 -3.3 -3.4 -3.3 -4 0 -0.6 -0.4 -1.1 -0.9 -1.1 -1.3 0 -1.8 -4.2 -1.1 -9.1 l0.6 -4.4 2.8 5.3 c1.5 3 2.5 5.6 2.2 5.9 -0.7 0.8 3.3 6.3 4.6 6.3 0.5 0 0.8 -0.7 0.4 -1.5 -0.4 -1.3 -0.2 -1.4 1.4 -0.5 1.1 0.6 2 1.4 2 1.8 0 1.3 -2.9 4.8 -3 3.7 0 -0.6 0.5 -1.6 1.2 -2.3 0.8 -0.8 0.8 -1.2 0.1 -1.2 -1.4 0 -3.4 2.5 -2.6 3.3 0.3 0.4 0.2 0.7 -0.3 0.7 -0.5 0 -2.4 -1.3 -4.1 -2.9z"/>
  <path d="M2.6 51.8 c0.3 -0.4 -0.2 -0.5 -1 -0.2 -2 0.8 -2.1 -1 -0.1 -2.9 0.8 -0.9 1.1 -1.7 0.6 -1.9 -1 -0.3 -1.4 -2.2 -1.2 -5.1 0 -1 0.5 -1.6 1 -1.2 0.5 0.3 1.2 0.1 1.5 -0.4 0.3 -0.5 4 -0.8 8.1 -0.8 4.1 0.1 7.5 -0.1 7.5 -0.4 0 -0.4 1.6 -0.9 3.5 -1.1 1.9 -0.2 3.5 -0.1 3.5 0.3 0 1.2 -10.2 5.9 -12.6 5.9 -1.3 0 -2.6 0.5 -2.9 1.1 -0.4 0.6 -2.4 0.8 -4.9 0.5 -2.2 -0.3 -3.2 -0.2 -2.1 0.1 1.1 0.3 2.5 0.9 3.1 1.4 0.6 0.5 2.2 0.2 3.8 -0.6 1.5 -0.8 3.2 -1.3 3.6 -1 1.2 0.7 7.8 -2.4 12.1 -5.7 3.2 -2.4 3.8 -2.6 4.3 -1.1 0.7 1.7 -3.1 6.6 -4.4 5.8 -0.5 -0.3 -1.1 0.2 -1.4 1.1 -0.3 0.8 -1.1 1.2 -1.7 0.8 -0.8 -0.4 -0.9 -0.3 -0.5 0.4 0.9 1.6 -5.4 4.1 -9 3.6 -2.4 -0.4 -2.5 -0.3 -0.9 0.5 1.9 0.8 1.9 0.9 -0.5 1.4 -3.6 0.8 -10 0.4 -9.4 -0.5z"/>
  <path d="M34.3 27.9 c-1.9 -0.5 -3.3 -1.6 -3.3 -2.5 0 -0.9 -0.5 -1.2 -1.2 -0.8 -0.7 0.4 -0.8 0.3 -0.4 -0.4 0.4 -0.7 1.4 -1.2 2.2 -1.2 0.8 0 1.4 -0.5 1.4 -1.1 0 -1.2 -4.3 -0.1 -4.8 1.2 -0.5 1.1 -6.4 -0.1 -7.9 -1.7 -1.9 -1.9 -2.3 -6.2 -0.8 -7.8 0.9 -0.8 2.4 -1.2 3.7 -0.9 1.3 0.3 2 0.3 1.6 -0.2 -1.2 -1.3 4.3 -10.6 6.9 -11.6 3.2 -1.2 4.6 -1.1 3.8 0.1 -0.3 0.5 0 0.7 0.9 0.4 0.9 -0.3 2.1 0.4 3.1 1.9 0.9 1.4 2.9 3 4.5 3.7 1.6 0.6 3.5 1.9 4.3 2.8 1.7 2 3.3 6.7 2 5.9 -0.4 -0.3 -0.7 1.1 -0.5 3.1 0.7 6.9 -7.4 11.6 -15.5 9.1z m6.4 -2.9 c-0.5 -2.2 -0.3 -3 0.8 -3 0.8 0 1.9 -0.9 2.5 -2 0.6 -1.1 1.8 -2 2.8 -2 1.2 0 1 -0.4 -0.8 -1.7 -1.4 -0.9 -2.8 -2.2 -3.2 -2.7 -0.5 -0.7 -1.3 -0.5 -2.5 0.7 -1.6 1.6 -1.6 1.7 0.5 1.7 2.7 0 2.9 2 0.2 2.7 -1.1 0.3 -2 0.9 -2 1.3 0 0.4 -0.7 1.1 -1.6 1.4 -1.2 0.5 -1.5 0.2 -1 -0.9 0.3 -0.9 0.2 -1.4 -0.2 -1.1 -0.4 0.2 -1.4 0.1 -2.2 -0.4 -1.1 -0.7 -1.1 -1.1 -0.1 -2.3 1 -1.3 0.5 -2 -3.3 -4.7 -2.6 -1.7 -4.6 -2.7 -4.6 -2.1 0 1.1 2.8 4.1 3.9 4.1 0.4 0 0.7 0.9 0.8 2 0.1 1.1 -0.2 1.8 -0.8 1.5 -0.5 -0.4 -0.9 -0.2 -0.9 0.4 0 1.5 2 2.4 2 0.9 0.1 -0.7 1.1 -0.1 2.3 1.3 1.2 1.4 3 2.9 4 3.2 1.1 0.4 1.5 1.2 1.1 1.8 -0.5 0.8 -0.3 0.9 0.7 0.4 1.2 -0.8 1.2 -0.6 0 0.8 -1.2 1.5 -1.1 1.7 0.4 1.7 1.4 0 1.6 -0.6 1.2 -3z m-1.9 -11.6 c1.2 -0.4 2.2 -1.4 2.2 -2.3 0 -0.9 0.5 -2.2 1.2 -2.9 0.9 -0.9 0.9 -1.2 0 -1.2 -0.6 0 -1.6 0.9 -2.2 2 -1.3 2.5 -3.1 2.7 -2.4 0.3 0.3 -1 -0.2 -0.7 -1 0.7 -2.5 4 -2.2 4.5 2.2 3.4z"/>
</g>
 <g id="layer105" fill="#946b2e" stroke="none">
  <path d="M46.3 56.1 c-1.8 -1.6 -3.3 -3.3 -3.3 -3.9 0 -0.6 -0.4 -1.2 -0.9 -1.4 -1.1 -0.3 -1.5 -3.5 -1.2 -9.3 0.1 -3.7 0.3 -3.8 1.6 -2.2 0.7 1.1 1.1 2.6 0.8 3.5 -0.4 0.9 -0.2 1.3 0.5 0.8 1 -0.6 2.6 2.4 2.7 5.4 0.1 0.8 0.6 1.4 1.3 1.3 0.6 -0.2 0.9 0.3 0.6 1.1 -0.3 0.8 0.4 2.1 1.6 2.9 1.4 0.9 1.7 1.7 1.1 2.2 -0.6 0.3 -0.9 1.1 -0.6 1.6 1.2 1.8 -1.1 0.8 -4.2 -2z"/>
  <path d="M0.9 51.9 c-1.2 -0.7 -0.1 -3.9 1.5 -3.9 0.8 0 0.8 -0.2 -0.1 -0.8 -1.2 -0.7 -1.6 -2.5 -1.4 -5.5 0 -1 0.5 -1.6 1 -1.2 0.5 0.3 1.2 0.1 1.5 -0.4 0.3 -0.5 4 -0.8 8.1 -0.8 4.1 0.1 7.5 -0.1 7.5 -0.4 0 -0.4 1.6 -0.9 3.5 -1.1 1.9 -0.2 3.5 -0.1 3.5 0.3 0 1.2 -10.2 5.9 -12.6 5.9 -1.3 0 -2.6 0.5 -2.9 1.1 -0.4 0.6 -2.4 0.8 -4.9 0.5 -2.2 -0.3 -3.2 -0.2 -2.1 0.1 1.1 0.3 2.5 0.9 3.1 1.4 0.6 0.5 2.2 0.2 3.8 -0.6 1.5 -0.8 3.2 -1.3 3.6 -1 1.2 0.7 7.8 -2.4 12.1 -5.7 3.2 -2.4 3.8 -2.6 4.3 -1.1 0.7 1.8 -3.1 6.6 -4.5 5.7 -0.5 -0.3 -0.9 0 -0.9 0.5 0 0.6 -0.7 1.1 -1.6 1.1 -0.8 0 -1.2 0.4 -0.9 1 0.9 1.4 -5.8 3.9 -8.9 3.3 -2.1 -0.4 -2.5 -0.2 -2 1.1 0.5 1.4 -0.1 1.6 -4.6 1.3 -2.8 -0.1 -5.6 -0.5 -6.1 -0.8z"/>
  <path d="M34.3 27.9 c-2.3 -0.7 -3.3 -1.6 -3.3 -2.9 0 -1.1 0.5 -2 1 -2 0.6 0 1 -0.5 1 -1.1 0 -1.2 -4.3 -0.1 -4.8 1.2 -0.5 1.1 -6.4 -0.1 -7.9 -1.7 -3.5 -3.5 -1.5 -9.8 2.8 -8.7 1.5 0.4 2 0.3 1.5 -0.5 -0.4 -0.7 -0.1 -1.2 0.8 -1.2 0.9 0 1.6 0.4 1.6 0.9 0 0.5 0.8 1.2 1.8 1.5 1 0.3 1.8 1.5 1.9 2.6 0.1 1.1 -0.2 1.8 -0.8 1.5 -0.5 -0.4 -0.9 -0.2 -0.9 0.4 0 1.5 2 2.4 2 0.9 0.1 -0.7 1.1 -0.1 2.3 1.3 1.2 1.4 3 2.9 4 3.2 1.1 0.4 1.5 1.2 1.1 1.8 -0.5 0.8 -0.3 0.9 0.7 0.4 1.2 -0.8 1.2 -0.6 0 0.8 -1.2 1.5 -1.1 1.7 0.3 1.7 1.2 0 1.7 -0.7 1.5 -2.2 -0.3 -2.5 3.9 -7.8 6.2 -7.8 0.7 0 0.2 -0.8 -1.1 -1.7 -1.4 -0.9 -2.8 -2.2 -3.2 -2.7 -0.5 -0.7 -1.3 -0.5 -2.5 0.7 -1.6 1.6 -1.6 1.7 0.7 1.7 2.5 0 2.4 0.1 -0.9 3 -3.8 3.4 -4.6 3.7 -3.7 1.4 0.3 -0.8 0.2 -1.3 -0.2 -1 -0.4 0.2 -1.4 0.1 -2.2 -0.4 -1.1 -0.7 -1.1 -1.1 -0.1 -2.3 1 -1.3 0.5 -2 -3.2 -4.6 -2.5 -1.7 -4.8 -2.7 -5.2 -2.3 -0.4 0.4 0.3 -1.2 1.5 -3.6 1.3 -2.4 3.4 -4.8 4.7 -5.3 3.3 -1.2 4.6 -1.1 3.7 0.3 -0.5 0.7 -0.3 0.8 0.5 0.3 0.8 -0.4 2.3 0.3 3.9 2.1 l2.7 2.9 -2.1 2.3 c-2.5 2.6 -3.5 2.8 -2.8 0.5 0.3 -1 -0.2 -0.5 -1.1 1 -2 3.4 -1.6 4 1.9 3.1 1.6 -0.4 2.6 -1.3 2.6 -2.5 0 -1 0.9 -2.3 1.9 -2.9 1.6 -0.8 2.5 -0.5 4.5 1.2 2.4 2.2 4.8 7.7 2.9 6.5 -0.6 -0.4 -0.8 0.9 -0.6 3.1 0.7 6.9 -7.3 11.6 -15.4 9.1z"/>
</g>
 <g id="layer106" fill="#ac854f" stroke="none">
  <path d="M46.3 56.1 c-1.8 -1.6 -3.3 -3.3 -3.3 -3.9 0 -0.6 -0.4 -1.2 -0.9 -1.4 -1.1 -0.3 -1.5 -3.5 -1.2 -9.3 0.2 -3.7 0.3 -3.9 1.6 -2.1 1.2 1.6 1.2 2.2 0.2 2.8 -1.1 0.7 -0.3 1.2 1.5 0.9 0.9 -0.1 2.3 3.8 2.7 7.6 0 0.6 0.9 1.9 1.8 2.9 1.6 1.6 2.6 5.4 1.4 5.4 -0.3 0 -2.1 -1.3 -3.8 -2.9z"/>
  <path d="M1.1 52 c-1.4 -0.8 -0.4 -4 1.3 -4 0.8 0 0.8 -0.2 -0.1 -0.8 -1.2 -0.7 -1.6 -2.5 -1.4 -5.5 0 -1 0.5 -1.6 1 -1.2 0.5 0.3 1.2 0.1 1.5 -0.4 0.3 -0.5 4 -0.8 8.1 -0.8 4.1 0.1 7.5 -0.1 7.5 -0.4 0 -0.4 1.6 -0.9 3.5 -1.1 1.9 -0.2 3.5 -0.2 3.5 0.2 0 1.1 -6.2 4 -7.2 3.3 -0.7 -0.3 -0.8 -0.1 -0.4 0.6 0.6 0.9 0 1 -2.1 0.6 -2.1 -0.5 -2.4 -0.4 -1.3 0.4 1.2 0.9 1 1.1 -1.2 1.1 -1.5 0 -3 0.5 -3.3 1 -0.4 0.6 -2.4 0.8 -4.8 0.4 -4.1 -0.6 -4.2 -0.5 -1.6 0.9 2.2 1.2 3.6 1.3 7 0.4 6.5 -1.5 16.1 -6.4 18 -9 0.3 -0.5 0.9 -0.1 1.3 0.9 0.9 2.2 -3 6.5 -5.2 5.7 -1 -0.4 -1.3 -0.2 -0.8 0.5 0.4 0.7 0.1 1.2 -0.9 1.2 -0.9 0 -1.3 0.4 -1 1 0.9 1.5 -6.4 4.1 -8.4 3.1 -1 -0.6 -2.3 -0.6 -3.2 0 -1 0.6 -1 0.9 -0.1 0.9 0.6 0 1.2 0.5 1.2 1 0 0.6 -0.9 1 -2.1 1 -1.5 0 -1.9 -0.4 -1.5 -1.6 0.5 -1.3 0.3 -1.4 -0.6 -0.7 -1.9 1.5 -5.4 2.2 -6.7 1.3z"/>
  <path d="M34.3 27.9 c-3.6 -1.1 -4.7 -4.8 -1.5 -5 4.7 -0.3 6 0.5 4.1 2.8 -0.9 1.1 -1 1.4 -0.1 0.9 0.6 -0.4 1.2 -0.2 1.2 0.3 0 0.6 0.6 1.1 1.4 1.1 1.7 0 2.9 -2.7 1.5 -3.5 -1.4 -0.9 4.8 -6.7 6.8 -6.3 2.9 0.5 2.6 4.1 -0.5 7.1 -3.3 3.1 -8.1 4.1 -12.9 2.6z"/>
  <path d="M24.1 23.3 c-3.1 -0.6 -4.9 -2.4 -5.5 -5.7 -0.6 -3.2 1.6 -5.6 4.5 -4.9 1.5 0.4 2 0.3 1.5 -0.5 -1.1 -1.9 1.2 -1.4 3.2 0.6 2.6 2.6 3.5 5.3 1.6 4.5 -0.7 -0.3 -1.4 0 -1.4 0.7 0 0.6 -0.4 0.9 -0.9 0.6 -0.5 -0.3 -1.1 0.3 -1.4 1.3 -0.3 1.4 -0.1 1.8 0.9 1.4 0.8 -0.3 1.4 0.1 1.4 1.1 0 0.9 -0.3 1.5 -0.7 1.5 -0.5 -0.1 -1.9 -0.4 -3.2 -0.6z"/>
  <path d="M29 21.1 c0 -1.2 2.8 -2.2 3.5 -1.2 0.3 0.5 -0.2 1.2 -1.1 1.5 -2.1 0.8 -2.4 0.8 -2.4 -0.3z"/>
  <path d="M35.7 19.2 l-2.8 -1.4 2.6 -2.4 c3 -2.7 5 -3.2 4.1 -0.8 -0.8 2.1 0.4 4 1.5 2.3 0.4 -0.7 1 -1.1 1.3 -0.8 0.3 0.3 -0.4 1.4 -1.7 2.5 -2 1.7 -2.5 1.8 -5 0.6z"/>
  <path d="M47.9 17.1 c-0.8 -0.3 -2.8 -1.6 -4.3 -2.8 -4.5 -3.6 -1.4 -8.9 3.3 -5.6 4.2 2.9 5 10 1 8.4z"/>
  <path d="M30.5 11.9 c-2.2 -1.5 -4.3 -2.5 -4.8 -2.2 -0.4 0.2 0.2 -1.4 1.4 -3.7 1.9 -3.7 5 -6 8 -6 0.5 0 2.6 1.6 4.6 3.6 2.9 3 3.2 3.5 1.3 2.9 -1.9 -0.6 -2.1 -0.4 -1.6 1.3 1 3.1 -1.3 3.7 -4.1 1.1 l-2.6 -2.4 1.6 2.5 c0.8 1.4 1.2 3.2 0.8 4.1 -0.5 1.3 -1.2 1.1 -4.6 -1.2z m8.5 -2.8 c0 -0.5 -0.7 -1.4 -1.5 -2.1 -1.6 -1.4 -1.8 -1 -0.9 1.4 0.6 1.7 2.4 2.2 2.4 0.7z m-1.7 -6.2 c-1.7 -1.8 -2.1 -1.8 -2.6 -0.5 -0.4 1 -0.1 1.3 0.8 0.9 0.8 -0.3 1.8 0.2 2.1 1.1 0.4 0.9 0.9 1.4 1.2 1.1 0.3 -0.3 -0.3 -1.5 -1.5 -2.6z"/>
</g>
 <g id="layer107" fill="#e6c07a" stroke="none">
  <path d="M47 56.6 c-5.8 -5.5 -7.5 -9.3 -6 -13.1 0.5 -1.1 0.9 -1.5 0.9 -0.8 0.1 0.6 0.6 2.4 1.1 3.8 0.9 2.3 1.3 2.5 2.5 1.5 1.3 -1.1 1.4 -1 0.9 0.6 -0.4 1 -1.2 2.5 -1.8 3.3 -0.9 1.2 -0.8 1.3 0.5 0.9 1.7 -0.7 5.3 2.7 4.4 4.2 -0.3 0.4 0.1 1.1 0.7 1.3 0.7 0.3 0.8 0.6 0.3 0.6 -0.6 0.1 -2.1 -1 -3.5 -2.3z"/>
  <path d="M0.6 49.5 c0.4 -0.8 1.1 -1.5 1.8 -1.5 0.6 0 0.4 -0.5 -0.4 -1.1 -1.1 -0.8 -0.9 -0.8 1 -0.3 3.1 1 5.7 1 9.5 -0.1 2.8 -0.8 2.9 -0.7 1.5 1 -1.4 1.7 -1.3 1.8 0.2 1.3 0.9 -0.4 1.9 -0.1 2.2 0.7 0.4 1.1 0 1.2 -1.9 0.5 -1.4 -0.5 -3.7 -0.5 -5.7 0.1 -4.1 1.1 -7.1 1.1 -4.3 -0.1 1.6 -0.7 1.7 -0.9 0.3 -0.9 -0.9 -0.1 -2 0.4 -2.3 0.9 -1 1.6 -2.5 1.2 -1.9 -0.5z"/>
  <path d="M17 46 c0 -0.6 0.7 -1 1.5 -1 0.8 0 1.5 -0.4 1.5 -1 0 -0.5 0.7 -1 1.5 -1 1.5 0 2.7 -0.8 6.5 -4.2 1.6 -1.4 1.9 -1.5 2.4 -0.1 0.8 2.1 0.7 2.5 -0.4 1.8 -0.5 -0.3 -1 0.1 -1 0.9 0 0.9 -0.6 1.6 -1.4 1.6 -0.8 0 -2.2 0.7 -3 1.6 -0.9 0.9 -1.6 1.1 -1.6 0.4 0 -0.6 -0.5 -0.8 -1 -0.5 -0.6 0.4 -0.8 1 -0.6 1.4 0.3 0.4 -0.6 0.8 -2 0.9 -1.3 0.1 -2.4 -0.3 -2.4 -0.8z"/>
  <path d="M2.4 43.8 c-0.3 -0.4 -0.9 -0.6 -1.4 -0.3 -0.4 0.3 -0.6 -0.5 -0.2 -1.7 0.5 -2 0.6 -2.1 1.2 -0.3 0.6 1.8 0.7 1.8 1.2 -0.2 0.8 -3.1 4.6 -2.7 4.2 0.4 -0.3 2.6 1.3 2.6 3.6 0.1 2.3 -2.6 6.2 -3.2 8.5 -1.3 1.9 1.6 1.9 1.6 0 0.7 -1.5 -0.8 -2.6 -0.5 -4.9 1.1 -3 2.1 -11.2 3.2 -12.2 1.5z"/>
  <path d="M41.4 25.6 c-0.1 -3 0.9 -4.4 5 -6.7 1.5 -0.9 1.8 -0.9 1.3 0.3 -0.3 0.8 -0.1 2.1 0.5 2.9 0.8 1.1 0.9 1 0.4 -0.3 -0.3 -1 -0.1 -1.8 0.5 -1.8 0.6 0 0.9 0.8 0.7 1.8 -0.2 0.9 -1.1 1.6 -2.1 1.4 -1.1 -0.2 -1.5 0.2 -1.1 1.3 0.4 1 0 1.5 -1.1 1.5 -0.9 0 -1.4 0.4 -1.1 0.9 0.3 0.5 -0.2 1.1 -1.2 1.3 -1.3 0.4 -1.7 -0.2 -1.8 -2.6z"/>
  <path d="M32.8 27.3 c-1 -0.2 -1.8 -1.4 -1.8 -2.5 0 -1.3 0.5 -1.8 1.4 -1.5 0.8 0.3 1.6 0.1 1.8 -0.5 0.2 -0.6 0.9 -0.3 1.7 0.6 1 1.2 1.1 1.6 0.1 1.6 -1 0 -1 0.3 0 1.5 1.3 1.6 0.5 1.8 -3.2 0.8z"/>
  <path d="M20.2 21.5 c-1.2 -1.4 -1.7 -4.1 -1.3 -7.5 0.1 -1.3 0.2 -1.3 1.1 0 0.8 1.3 1 1.3 1 -0.2 0 -1.2 0.6 -1.5 2.2 -1 1.4 0.3 1.9 0.2 1.4 -0.6 -0.4 -0.7 -0.3 -1.2 0.3 -1.2 0.5 0 1.3 0.5 1.6 1 0.3 0.6 0.1 1 -0.5 1 -0.7 0 -0.9 0.8 -0.4 2.2 0.6 2.1 0.5 2.2 -1.2 0.8 -1.8 -1.4 -1.8 -1.3 0.1 0.8 1.5 1.9 1.7 2.5 0.6 3.1 -0.8 0.5 -1 1.4 -0.7 2 1.1 1.7 -2.7 1.3 -4.2 -0.4z"/>
  <path d="M34 18.2 c0 -1.1 3.9 -5.2 5 -5.2 0.4 0 0.3 1.4 -0.3 3 -0.7 1.8 -1.9 3 -2.9 3 -1 0 -1.8 -0.4 -1.8 -0.8z"/>
  <path d="M44 14.3 c-3.1 -2.8 -3.4 -5.6 -0.6 -6.6 1.8 -0.7 4.6 1.3 2.8 2 -0.9 0.3 -0.6 1.3 0.9 3.5 1.7 2.3 2.4 2.7 3.1 1.6 0.8 -1 0.9 -1 0.5 0.2 -0.6 2.5 -3.4 2.3 -6.7 -0.7z"/>
  <path d="M30.4 11.7 c-1.6 -1.2 -3.2 -2.5 -3.5 -3 -1.1 -1.5 2.2 -6.8 4.9 -7.8 3.3 -1.3 5.4 -0.4 2.2 0.9 -1.4 0.6 -1.9 1.1 -1.2 1.1 0.6 0.1 1.2 0.8 1.2 1.7 0 1.4 -0.3 1.4 -1.5 0.4 -0.8 -0.7 -1.5 -0.8 -1.5 -0.2 0 0.5 0.7 1.5 1.5 2.2 0.8 0.7 1.5 1.8 1.5 2.5 0 0.8 0.4 1.5 0.9 1.7 0.5 0.2 0.4 0.8 -0.3 1.4 -0.9 0.9 -2 0.6 -4.2 -0.9z"/>
  <path d="M38.7 4 c-1.9 -2.2 -2.2 -3.5 -0.7 -2.5 1 0.6 3.4 4.5 2.8 4.5 -0.2 0 -1.1 -0.9 -2.1 -2z"/>
</g>

</svg>